#define 3floppy_unmount_width 24
#define 3floppy_unmount_height 24
static unsigned char 3floppy_unmount_bits[] = {
   0x00, 0x00, 0x00, 0xfc, 0xff, 0x1f, 0xfe, 0xff, 0x3f, 0x0e, 0x00, 0x38,
   0x0e, 0x00, 0x38, 0xce, 0xff, 0x39, 0x0e, 0x00, 0x38, 0x0e, 0x00, 0x38,
   0xce, 0xff, 0x39, 0x0e, 0x00, 0x38, 0x0e, 0x00, 0x38, 0x0e, 0x00, 0x3c,
   0xfe, 0xff, 0x3f, 0xfe, 0xff, 0x3f, 0xfe, 0xff, 0x3f, 0x3e, 0x80, 0x3f,
   0xde, 0xbf, 0x3f, 0xde, 0xbf, 0x3f, 0xde, 0xbf, 0x3f, 0xde, 0xbf, 0x3f,
   0x1c, 0x80, 0x3f, 0xf8, 0xff, 0x3f, 0x00, 0x00, 0x00, 0x00, 0x00, 0x00 };
