#define custom_width 80
#define custom_height 16
static char custom_bits[] = {
 0x00, 0x00, 0x00, 0x00, 0x00, 0x00, 0x00, 0x00, 0x00, 0x00, 0x00, 0x00,
 0x00, 0x00, 0x00, 0x00, 0x00, 0x00, 0x00, 0x00, 0x00, 0x00, 0x00, 0x00,
 0x00, 0x00, 0x00, 0x00, 0x00, 0x00, 0x00, 0x00, 0x00, 0x00, 0x00, 0x00,
 0x00, 0x00, 0x00, 0x00, 0x00, 0x00, 0xe0, 0x03, 0x00, 0x01, 0x00, 0x00,
 0x00, 0x00, 0x00, 0x00, 0x30, 0x02, 0x00, 0x01, 0x00, 0x00, 0x00, 0x00,
 0x00, 0x00, 0x10, 0x88, 0xbc, 0xf7, 0xf8, 0x07, 0x00, 0x00, 0x00, 0x00,
 0x18, 0x88, 0x06, 0x91, 0xd9, 0x0c, 0x00, 0x00, 0x00, 0x00, 0x18, 0x88,
 0x1c, 0x19, 0xc9, 0x0c, 0x00, 0x00, 0x00, 0x00, 0x10, 0x88, 0x38, 0x19,
 0xc9, 0x0c, 0x00, 0x00, 0x00, 0x00, 0x30, 0xca, 0x20, 0x91, 0xc9, 0x0c,
 0x00, 0x00, 0x00, 0x00, 0xe0, 0xfb, 0x3e, 0xf7, 0xc8, 0x0c, 0x00, 0x00,
 0x00, 0x00, 0x00, 0x00, 0x00, 0x00, 0x00, 0x00, 0x00, 0x00, 0x00, 0x00,
 0x00, 0x00, 0x00, 0x00, 0x00, 0x00, 0x00, 0x00, 0x00, 0x00, 0x00, 0x00,
 0x00, 0x00, 0x00, 0x00, 0x00, 0x00, 0x00, 0x00, 0x00, 0x00, 0x00, 0x00,
 0x00, 0x00, 0x00, 0x00
};
