#define Graffer_width 48
#define Graffer_height 56
static char Graffer_bits[] = {
 0x00,0x00,0x00,0x00,0x00,0x00,0x00,0x00,0x00,0x00,0x00,0x00,0xf8,0xff,0xff,
 0xff,0xff,0x3f,0x08,0x00,0x00,0x00,0x00,0x20,0x08,0x00,0x00,0x00,0x00,0x20,
 0x18,0x00,0x00,0xc0,0x07,0x20,0x68,0x00,0x00,0x40,0xf8,0x21,0x88,0x01,0x00,
 0x20,0x00,0x3e,0x08,0x06,0x00,0x1c,0x00,0x20,0x08,0x18,0xc0,0x03,0x00,0x20,
 0x08,0x60,0x3c,0x00,0x00,0x20,0x08,0x80,0x03,0x00,0x00,0x20,0x08,0x00,0x00,
 0x00,0x00,0x20,0x08,0x00,0x00,0x00,0x00,0x30,0xf8,0x03,0x00,0x00,0x00,0x28,
 0x08,0xfc,0x03,0x00,0x00,0x26,0x08,0x00,0x04,0x00,0x00,0x21,0x08,0x20,0x18,
 0x00,0x80,0x20,0x08,0x50,0x20,0x00,0x60,0x20,0x08,0x50,0x40,0x00,0x10,0x38,
 0x08,0x88,0x80,0x01,0x08,0x27,0x08,0x08,0x01,0x02,0xe4,0x20,0x08,0x04,0x01,
 0x04,0x13,0x20,0x08,0x02,0x02,0x98,0x08,0x20,0x08,0x02,0x04,0x60,0x04,0x20,
 0x08,0x01,0x04,0x00,0x04,0x20,0x88,0x00,0x08,0x00,0x02,0x20,0x88,0x00,0x10,
 0x00,0x01,0x20,0x48,0x00,0x20,0x80,0x00,0x20,0x48,0x00,0x20,0x40,0x00,0x20,
 0x28,0x00,0x40,0x20,0x00,0x20,0x18,0x00,0x80,0x20,0x00,0x20,0x18,0xc0,0x83,
 0x10,0x00,0x20,0x08,0x20,0x7c,0x09,0xff,0x27,0x08,0x10,0x80,0x87,0x00,0x20,
 0x08,0x08,0x00,0x82,0x00,0x20,0x08,0x06,0x00,0x44,0x00,0x20,0x08,0x01,0x00,
 0x28,0x00,0x20,0x88,0x00,0x00,0x28,0x00,0x20,0x78,0x00,0x00,0x90,0x07,0x20,
 0xe8,0x00,0x00,0x7c,0x18,0x20,0x18,0x03,0xf0,0x03,0x60,0x20,0x08,0x8c,0x0f,
 0x00,0x80,0x21,0x08,0x70,0x00,0x00,0x00,0x26,0x08,0x00,0x00,0x00,0x00,0x38,
 0xf8,0xff,0xff,0xff,0xff,0x3f,0x00,0x00,0x00,0x00,0x00,0x00,0xf0,0x1e,0xc4,
 0xf7,0x7d,0x0f,0x98,0x2c,0x8e,0x61,0x18,0x16,0x18,0x2c,0x99,0xe7,0x79,0x16,
 0xd8,0x1c,0x9f,0x61,0x18,0x0e,0x98,0x2c,0x99,0x61,0x58,0x16,0xf0,0xee,0xf9,
 0xf3,0x7c,0x37,0x00,0x00,0x00,0x00,0x00,0x00,0x00,0x00,0x00,0x00,0x00,0x00,
 0x00,0x00,0x00,0x00,0x00,0x00};
