/* XPM */
static char * Graffer_xpm[] = {
"48 56 7 1",
" 	c none",
".	c #000000000000",
"X	c #FFFFFFFFFFFF",
"o	c #0000FFFF0000",
"O	c #00000000FFFF",
"+	c #FFFF00000000",
"@	c #0000FFFFFFFF",
"                                                ",
"                                                ",
"   ...........................................  ",
"   .XXXXXXXXXXXXXXXXXXXXXXXXXXXXXXXXXXXXXXXXX.  ",
"   .XXXXXXXXXXXXXXXXXXXXXXXXXXXXXXXXXXXXXXXXX.  ",
"   .oXXXXXXXXXXXXXXXXXXXXXXXXXoooooXXXXXXXXXX.  ",
"   .XooXXXXXXXXXXXXXXXXXXXXXXXoXXXXooooooXXXX.  ",
"   .XXXooXXXXXXXXXXXXXXXXXXXXoXXXXXXXXXXXoooo.  ",
"   .XXXXXooXXXXXXXXXXXXXXXoooXXXXXXXXXXXXXXXX.  ",
"   .XXXXXXXooXXXXXXXXXooooXXXXXXXXXXXXXXXXXXX.  ",
"   .XXXXXXXXXooXXXooooXXXXXXXXXXXXXXXXXXXXXXX.  ",
"   .XXXXXXXXXXXoooXXXXXXXXXXXXXXXXXXXXXXXXXXX.  ",
"   .XXXXXXXXXXXXXXXXXXXXXXXXXXXXXXXXXXXXXXXXX.  ",
"   .XXXXXXXXXXXXXXXXXXXXXXXXXXXXXXXXXXXXXXXXO.  ",
"   .OOOOOOXXXXXXXXXXXXXXXXXXXXXXXXXXXXXXXXXOX.  ",
"   .XXXXXXOOOOOOOOXXXXXXXXXXXXXXXXXXXXXXXOOXX.  ",
"   .XXXXXXXXXXXXXXOXXXXXXXXXXXXXXXXXXXXXOXXXX.  ",
"   .XXXXXXXXX.XXXXXOOXXXXXXXXXXXXXXXXXXOXXXXX.  ",
"   .XXXXXXXX.X.XXXXXXOXXXXXXXXXXXXXXXOOXXXXXX.  ",
"   .XXXXXXXX.X.XXXXXXXOXXXXXXXXXXXXXOXXXXXX++.  ",
"   .XXXXXXX.XXX.XXXXXXXOOXXXXXXXXXXOXXXX+++XX.  ",
"   .XXXXXXX.XXXX.XXXXXXXXOXXXXXXXXOXX+++XXXXX.  ",
"   .XXXXXX.XXXXX.XXXXXXXXXOXXXXXOOXX+XXXXXXXX.  ",
"   .XXXXX.XXXXXXX.XXXXXXXXXOOXXOXXX+XXXXXXXXX.  ",
"   .XXXXX.XXXXXXXX.XXXXXXXXXXOOXXX+XXXXXXXXXX.  ",
"   .XXXX.XXXXXXXXX.XXXXXXXXXXXXXXX+XXXXXXXXXX.  ",
"   .XXX.XXXXXXXXXXX.XXXXXXXXXXXXX+XXXXXXXXXXX.  ",
"   .XXX.XXXXXXXXXXXX.XXXXXXXXXXX+XXXXXXXXXXXX.  ",
"   .XX.XXXXXXXXXXXXXX.XXXXXXXXX+XXXXXXXXXXXXX.  ",
"   .XX.XXXXXXXXXXXXXX.XXXXXXXX+XXXXXXXXXXXXXX.  ",
"   .X.XXXXXXXXXXXXXXXX.XXXXXX+XXXXXXXXXXXXXXX.  ",
"   ..XXXXXXXXXXXXXXXXXX.XXXXX+XXXXXXXXXXXXXXX.  ",
"   ..XXXXXXXXX++++XXXXX.XXXX+XXXXXXXXXXXXXXXX.  ",
"   .XXXXXXXXX+XXXX+++++X.XX+XXXX...........XX.  ",
"   .XXXXXXXX+XXXXXXXXXX++++XXXX.XXXXXXXXXXXXX.  ",
"   .XXXXXXX+XXXXXXXXXXXXX.XXXXX.XXXXXXXXXXXXX.  ",
"   .XXXXX++XXXXXXXXXXXXXXX.XXX.XXXXXXXXXXXXXX.  ",
"   .XXXX+XXXXXXXXXXXXXXXXXX.X.XXXXXXXXXXXXXXX.  ",
"   .XXX+XXXXXXXXXXXXXXXXXXX.X.XXXXXXXXXXXXXXX.  ",
"   .@@+XXXXXXXXXXXXXXXXXXXXX.XX@@@@XXXXXXXXXX.  ",
"   .X+@@XXXXXXXXXXXXXXXXXX@@@@@XXXX@@XXXXXXXX.  ",
"   .+XXX@@XXXXXXXXXX@@@@@@XXXXXXXXXXX@@XXXXXX.  ",
"   .XXXXXX@@XXX@@@@@XXXXXXXXXXXXXXXXXXX@@XXXX.  ",
"   .XXXXXXXX@@@XXXXXXXXXXXXXXXXXXXXXXXXXX@@XX.  ",
"   .XXXXXXXXXXXXXXXXXXXXXXXXXXXXXXXXXXXXXXX@@.  ",
"   ...........................................  ",
"                                                ",
"    .... ....     .   ..... ..... ..... ....    ",
"   ..  .  .. .   ...   ..    ..    ..    .. .   ",
"   ..     .. .  .  ..  ....  ....  ....  .. .   ",
"   .. ..  ...   .....  ..    ..    ..    ...    ",
"   ..  .  .. .  .  ..  ..    ..    .. .  .. .   ",
"    .... ... ....  .......  ....  ..... ... ..  ",
"                                                ",
"                                                ",
"                                                "};
