#define omit_width 80
#define omit_height 16
static char omit_bits[] = {
 0x00, 0x00, 0x00, 0x00, 0x00, 0x00, 0x00, 0x00, 0x00, 0x00, 0x00, 0x00,
 0x00, 0x00, 0x00, 0x00, 0x00, 0x00, 0x00, 0x00, 0x00, 0x00, 0x00, 0x00,
 0x00, 0x00, 0x00, 0x00, 0x00, 0x00, 0x00, 0x00, 0x00, 0x00, 0x00, 0x00,
 0x00, 0x00, 0x00, 0x00, 0x00, 0x00, 0x00, 0xe0, 0x03, 0x40, 0x02, 0x00,
 0x00, 0x00, 0x00, 0x00, 0x00, 0x30, 0x03, 0x40, 0x02, 0x00, 0x00, 0x00,
 0x00, 0x00, 0x00, 0x18, 0xf6, 0x4f, 0x0f, 0x00, 0x00, 0x00, 0x00, 0x00,
 0x00, 0x18, 0xb6, 0x5b, 0x02, 0x00, 0x00, 0x00, 0x00, 0x00, 0x00, 0x18,
 0x96, 0x59, 0x02, 0x00, 0x00, 0x00, 0x00, 0x00, 0x00, 0x18, 0x96, 0x59,
 0x02, 0x00, 0x00, 0x00, 0x00, 0x00, 0x00, 0x30, 0x93, 0x59, 0x02, 0x00,
 0x00, 0x00, 0x00, 0x00, 0x00, 0xe0, 0x93, 0x59, 0x0e, 0x00, 0x00, 0x00,
 0x00, 0x00, 0x00, 0x00, 0x00, 0x00, 0x00, 0x00, 0x00, 0x00, 0x00, 0x00,
 0x00, 0x00, 0x00, 0x00, 0x00, 0x00, 0x00, 0x00, 0x00, 0x00, 0x00, 0x00,
 0x00, 0x00, 0x00, 0x00, 0x00, 0x00, 0x00, 0x00, 0x00, 0x00, 0x00, 0x00,
 0x00, 0x00, 0x00, 0x00
};
