#define ps0_width 32
#define ps0_height 16
static char ps0_bits[] = {
   0x00, 0x00, 0x00, 0x00, 0x00, 0x00, 0x00, 0x00, 0x00, 0x00, 0x00, 0xc0,
   0x00, 0x00, 0x00, 0x30, 0x00, 0x00, 0x00, 0x0e, 0x00, 0x06, 0x80, 0x01,
   0x00, 0x09, 0x60, 0x00, 0x80, 0x10, 0x1c, 0x00, 0x40, 0x20, 0x03, 0x00,
   0x20, 0xc0, 0x00, 0x00, 0x10, 0x00, 0x00, 0x00, 0x08, 0x00, 0x00, 0x00,
   0x04, 0x00, 0x00, 0x00, 0x02, 0x00, 0x00, 0x00, 0x01, 0x00, 0x00, 0x00,
   0x00, 0x00, 0x00, 0x00};
