#define ps11_width 32
#define ps11_height 16
static unsigned char ps11_bits[] = {
  0x80, 0xff, 0x3f, 0x00, 0x80, 0xff, 0x3f, 0x00, 0x80, 0xff, 0x3f, 0x00,
  0x80, 0xff, 0x3f, 0x00, 0x80, 0xff, 0x3f, 0x00, 0x80, 0xff, 0x3f, 0x00,
  0x80, 0xff, 0x3f, 0x00, 0x80, 0xff, 0x3f, 0x00, 0x80, 0xff, 0x3f, 0x00,
  0x80, 0xff, 0x3f, 0x00, 0x80, 0xff, 0x3f, 0x00, 0x80, 0xff, 0x3f, 0x00,
  0x80, 0xff, 0x3f, 0x00, 0x80, 0xff, 0x3f, 0x00, 0x80, 0xff, 0x3f, 0x00,
  0x00, 0x00, 0x00, 0x00, };
