#define ps15_width 32
#define ps15_height 16
static unsigned char ps15_bits[] = {
   0x00, 0xf0, 0x1f, 0x00, 0x00, 0x08, 0x20, 0x00, 0x00, 0x08, 0x20, 0x00,
   0x00, 0x04, 0x40, 0x00, 0x00, 0x04, 0x40, 0x00, 0x00, 0x02, 0x80, 0x00,
   0x00, 0x02, 0x80, 0x00, 0x00, 0x01, 0x00, 0x01, 0x00, 0x02, 0x80, 0x00,
   0x00, 0x02, 0x80, 0x00, 0x00, 0x04, 0x40, 0x00, 0x00, 0x04, 0x40, 0x00,
   0x00, 0x08, 0x20, 0x00, 0x00, 0x08, 0x20, 0x00, 0x00, 0xf0, 0x1f, 0x00,
   0x00, 0x00, 0x00, 0x00 };
