#define ps2_width 32
#define ps2_height 16
static char ps2_bits[] = {
   0x00, 0x80, 0x00, 0x00, 0x00, 0x82, 0x20, 0x00, 0x00, 0x84, 0x10, 0x00,
   0x00, 0x88, 0x08, 0x00, 0x00, 0x90, 0x04, 0x00, 0x00, 0xa0, 0x02, 0x00,
   0x00, 0xc0, 0x01, 0x00, 0x00, 0xff, 0x7f, 0x00, 0x00, 0xc0, 0x01, 0x00,
   0x00, 0xa0, 0x02, 0x00, 0x00, 0x90, 0x04, 0x00, 0x00, 0x88, 0x08, 0x00,
   0x00, 0x84, 0x10, 0x00, 0x00, 0x82, 0x20, 0x00, 0x00, 0x80, 0x00, 0x00,
   0x00, 0x00, 0x00, 0x00};
