#define ps6_width 32
#define ps6_height 16
static char ps6_bits[] = {
   0x80, 0xff, 0x3f, 0x00, 0x80, 0x00, 0x20, 0x00, 0x80, 0x00, 0x20, 0x00,
   0x80, 0x00, 0x20, 0x00, 0x80, 0x00, 0x20, 0x00, 0x80, 0x00, 0x20, 0x00,
   0x80, 0x00, 0x20, 0x00, 0x80, 0x00, 0x20, 0x00, 0x80, 0x00, 0x20, 0x00,
   0x80, 0x00, 0x20, 0x00, 0x80, 0x00, 0x20, 0x00, 0x80, 0x00, 0x20, 0x00,
   0x80, 0x00, 0x20, 0x00, 0x80, 0x00, 0x20, 0x00, 0x80, 0xff, 0x3f, 0x00,
   0x00, 0x00, 0x00, 0x00};
