#define ps7_width 32
#define ps7_height 16
static char ps7_bits[] = {
   0x80, 0x00, 0x20, 0x00, 0x00, 0x01, 0x10, 0x00, 0x00, 0x02, 0x08, 0x00,
   0x00, 0x04, 0x04, 0x00, 0x00, 0x08, 0x02, 0x00, 0x00, 0x10, 0x01, 0x00,
   0x00, 0xa0, 0x00, 0x00, 0x00, 0x40, 0x00, 0x00, 0x00, 0xa0, 0x00, 0x00,
   0x00, 0x10, 0x01, 0x00, 0x00, 0x08, 0x02, 0x00, 0x00, 0x04, 0x04, 0x00,
   0x00, 0x02, 0x08, 0x00, 0x00, 0x01, 0x10, 0x00, 0x80, 0x00, 0x20, 0x00,
   0x00, 0x00, 0x00, 0x00};
